<svg xmlns="http://www.w3.org/2000/svg" viewBox="0 0 363 72.61"><defs><style>.cls-1{fill:#fff;}</style></defs><g id="Ebene_2" data-name="Ebene 2"><g id="Ebene_3" data-name="Ebene 3"><path class="cls-1" d="M107.77,37.94q4.78-4.23,8.22-7.37l5.39-4.94q2-1.8,3.45-3.05a5.08,5.08,0,0,1,1.91-1.25c.53,0,1,.53,1.52,1.65a7.2,7.2,0,0,1,.73,2.69c0,.43-.73,1.47-2.2,3.1s-2.57,2.93-3.29,3.9a5,5,0,0,0-1.1,3,2,2,0,0,0,.63,1.51,2.12,2.12,0,0,0,1.49.57,4.37,4.37,0,0,0,2.41-1c.93-.69,2.41-1.93,4.42-3.71v2.46c-2,1.9-3.84,3.53-5.48,4.91a29.72,29.72,0,0,1-4.28,3.08,6.6,6.6,0,0,1-3,1,2.34,2.34,0,0,1-1.81-.81,3,3,0,0,1-.72-2,7.28,7.28,0,0,1,.41-2.39,23,23,0,0,1,1.28-2.88q.87-1.66,2.29-4l2.6-4.28c-2.36,1.92-4.45,3.76-6.27,5.54S113,37,111.87,38.34l-2.74,3.13c-1.3,1.44-2.5,2.15-3.61,2.15s-1.8-.85-1.8-2.56a10.44,10.44,0,0,1,1.35-3.73q1.35-2.69,3.85-6.85a1.41,1.41,0,0,0,.21-.86.62.62,0,0,0-.7-.7c-.51,0-1.24.48-2.2,1.44s-2.81,3-5.56,6a35.06,35.06,0,0,0-2.59,3.34A29.86,29.86,0,0,1,96,42.48a1.72,1.72,0,0,1-1.25.69c-.83,0-1.6-.74-2.32-2.22a11.66,11.66,0,0,1-1.07-5.16,8.8,8.8,0,0,1,.71-3.71,30.54,30.54,0,0,1,2.2-3.88,34.72,34.72,0,0,1,3.79-4.81A4.47,4.47,0,0,1,101.19,22a3.45,3.45,0,0,1,1.7.39,1.22,1.22,0,0,1,.69,1.1,5.09,5.09,0,0,1-1.27,2.39,26,26,0,0,1-3.2,3.43,13.14,13.14,0,0,0-2,2.48,4.89,4.89,0,0,0-.93,2.13c0,.63.24.94.72.94s1.39-.81,3-2.43,3.35-3.38,5.26-5.29a56.77,56.77,0,0,1,5.3-4.75,7.32,7.32,0,0,1,4.14-1.88,2.14,2.14,0,0,1,1.72.78,2.82,2.82,0,0,1,.68,1.92,7.67,7.67,0,0,1-1,2.76,53.79,53.79,0,0,1-3,4.92Q110.93,33.77,107.77,37.94Z"/><path class="cls-1" d="M135.23,27a41.87,41.87,0,0,1,10.23-7.1c3.3-1.55,5.86-2.33,7.66-2.33a1.91,1.91,0,0,1,1.35.61,4.46,4.46,0,0,1,1,1.4,3.37,3.37,0,0,1,.36,1.18,1,1,0,0,1-.48.92,9.48,9.48,0,0,1-1.7.71c.16.37.37.85.63,1.42s.44,1.05.58,1.41a2.65,2.65,0,0,1,.21.95c0,.56-.56,1.59-1.68,3.1s-1.91,2.63-2.36,3.35a4.85,4.85,0,0,0-.67,2.63c0,1.71.78,2.57,2.36,2.57s4.14-1.51,7.59-4.54v2.11q-8.78,9.75-12.55,9.74a2.13,2.13,0,0,1-1.93-.88,4.88,4.88,0,0,1-.57-2.62,24.71,24.71,0,0,1,2-7.94q-5.07,5.63-7.52,8T135.65,44c-.51,0-1.15-.44-1.91-1.32a12.76,12.76,0,0,1-2-3.41,11.27,11.27,0,0,1-.88-4.35,10.06,10.06,0,0,1,.31-2.73A6.53,6.53,0,0,1,132.36,30,32,32,0,0,1,135.23,27Zm16.61-3.81q-9,4.13-12.85,7t-3.83,5.93a3.87,3.87,0,0,0,.38,1.82,1.17,1.17,0,0,0,1,.71,3.82,3.82,0,0,0,1.36-.48,27.49,27.49,0,0,0,6.65-5.6Q147.6,29.1,151.84,23.17Z"/><path class="cls-1" d="M187.62,35.51,176.11,45a67.27,67.27,0,0,1-8.84,12.53q-4,4.14-5.93,4.14c-.69,0-1-.43-1-1.28,0-1.67.84-3.79,2.53-6.38a26.13,26.13,0,0,1,2.3-3,35.18,35.18,0,0,1,2.47-2.52c.77-.7,1.79-1.58,3.06-2.63s2.14-1.77,2.6-2.17q3.48-7.06,5-10.81c-2.18,2.31-4.07,4.2-5.69,5.68A27.9,27.9,0,0,1,168.12,42a7.48,7.48,0,0,1-3.66,1.19q-1.77,0-3.26-2.82a12.37,12.37,0,0,1-1.49-5.81,7.48,7.48,0,0,1,.64-2.91,14.58,14.58,0,0,1,2-3.26,26.13,26.13,0,0,1,3.48-3.55,37.8,37.8,0,0,1,5-3.56q5.37-3.36,8.36-3.36c1.48,0,2.22.54,2.22,1.63q0,2.25-4.82,4.4a30.79,30.79,0,0,0-5.84,3.4A22.15,22.15,0,0,0,166,31.82a7.42,7.42,0,0,0-1.79,4.28,2.3,2.3,0,0,0,.45,1.49,1.45,1.45,0,0,0,1.18.56A5,5,0,0,0,168.65,37a53.76,53.76,0,0,0,4.61-3.92A42.09,42.09,0,0,0,177,29a53.45,53.45,0,0,1,3.81-4.37,4.15,4.15,0,0,1,2.72-1.51,1.53,1.53,0,0,1,1.13.43,1.71,1.71,0,0,1,.43,1.27,13.47,13.47,0,0,1-1.26,4.63q-1.28,3-4.56,9.93l8.39-6.1Z"/><path class="cls-1" d="M204,33.19v2.53a35.4,35.4,0,0,1-6.28,6.53q-2.91,2.2-5,2.21a4.5,4.5,0,0,1-4.23-3A15.29,15.29,0,0,1,187.17,35a11.42,11.42,0,0,1,.28-2.59,9.61,9.61,0,0,1,.65-2c.26-.54.73-1.37,1.43-2.5q4.92-7.67,9-7.66c1.41,0,2.11.54,2.11,1.63a8.09,8.09,0,0,1-1.37,3.46,14.91,14.91,0,0,1-2.44,3.37,54.65,54.65,0,0,0-3.93,4.05,4,4,0,0,0-.92,2.6,2.66,2.66,0,0,0,.93,2.08,3.52,3.52,0,0,0,2.43.84,7,7,0,0,0,3.59-1.2A44.58,44.58,0,0,0,204,33.19Zm-2.36-15.5A2.52,2.52,0,0,1,200,17a2.08,2.08,0,0,1-.78-1.66,5.77,5.77,0,0,1,1.46-3.4,4,4,0,0,1,3-1.87,2.29,2.29,0,0,1,2.42,2.5,5.5,5.5,0,0,1-1.42,3.29A4,4,0,0,1,201.66,17.69Z"/><path class="cls-1" d="M224.65,33.26v2.32c-2.48,2.43-4.49,4.31-6.05,5.65a26.17,26.17,0,0,1-4.37,3.12,8.25,8.25,0,0,1-4,1.11,5,5,0,0,1-3.5-1.51,10,10,0,0,1-2.5-4,14.89,14.89,0,0,1-.9-5.18,8.44,8.44,0,0,1,1-4.2,23.9,23.9,0,0,1,4-4.75A39.76,39.76,0,0,1,215,20.52q3-1.89,4.77-1.89a2.9,2.9,0,0,1,2.11.86,3,3,0,0,1,.87,2.19,7.26,7.26,0,0,1-1.14,3.15A18.07,18.07,0,0,1,219,28.39q-1.42,1.5-2.25,1.5c-.6,0-.9-.32-.9-1,0-.18,0-.35.05-.52s0-.32,0-.48-.09-.43-.29-.47a1,1,0,0,0-.71.26c-2.31,1.62-3.9,2.76-4.75,3.42a10.12,10.12,0,0,0-2,2,3.52,3.52,0,0,0-.74,2.11,4.45,4.45,0,0,0,1.31,3.33,4.71,4.71,0,0,0,3.44,1.28,11.45,11.45,0,0,0,5.25-1.68A57.6,57.6,0,0,0,224.65,33.26Z"/><path class="cls-1" d="M228.64,27a41.83,41.83,0,0,1,10.22-7.1q5-2.32,7.66-2.33a2,2,0,0,1,1.36.61,4.59,4.59,0,0,1,1,1.4,3.24,3.24,0,0,1,.37,1.18,1,1,0,0,1-.49.92,9.48,9.48,0,0,1-1.7.71c.17.37.37.85.63,1.42s.45,1.05.59,1.41a2.65,2.65,0,0,1,.21.95c0,.56-.57,1.59-1.69,3.1s-1.9,2.63-2.35,3.35a4.85,4.85,0,0,0-.68,2.63c0,1.71.79,2.57,2.36,2.57s4.15-1.51,7.59-4.54v2.11q-8.77,9.75-12.55,9.74a2.1,2.1,0,0,1-1.92-.88,4.78,4.78,0,0,1-.58-2.62,24.71,24.71,0,0,1,2-7.94q-5.06,5.63-7.52,8c-1.64,1.59-3,2.38-4.06,2.38-.51,0-1.14-.44-1.91-1.32a12.75,12.75,0,0,1-2-3.41,11.1,11.1,0,0,1-.89-4.35,10.47,10.47,0,0,1,.31-2.73A6.7,6.7,0,0,1,225.76,30,31,31,0,0,1,228.64,27Zm16.6-3.81q-9,4.13-12.84,7c-2.56,1.92-3.83,3.9-3.83,5.93a3.75,3.75,0,0,0,.38,1.82,1.16,1.16,0,0,0,1,.71,3.86,3.86,0,0,0,1.35-.48,27.34,27.34,0,0,0,6.66-5.6Q241,29.1,245.24,23.17Z"/><path class="cls-1" d="M270,32.81v2.56Q262.78,45,258.24,45a4.27,4.27,0,0,1-3.86-2.69A15.19,15.19,0,0,1,253,35.23a26.65,26.65,0,0,1,1.67-8.4A60.58,60.58,0,0,1,259.09,17a61.9,61.9,0,0,1,5.79-8.74A21.89,21.89,0,0,1,270.45,3a3.56,3.56,0,0,1,1.63-.62,1,1,0,0,1,1,.64,7,7,0,0,1,.24,2.2q0,4.81-3.92,11.84a71.39,71.39,0,0,1-10.92,14.34,16,16,0,0,0-.35,2.77,6.18,6.18,0,0,0,1,3.6,3,3,0,0,0,2.65,1.39,3.34,3.34,0,0,0,1.87-.68,18.89,18.89,0,0,0,2.12-1.68Q266.81,35.78,270,32.81Zm-10.37-6.24a34,34,0,0,0,3.49-4,50.8,50.8,0,0,0,3.17-4.82,41,41,0,0,0,2.34-4.61,9,9,0,0,0,.85-3.09c0-.53-.18-.8-.55-.8a2.06,2.06,0,0,0-.8.38q-2.12,1.74-4.75,6.78A40.29,40.29,0,0,0,259.66,26.57Z"/><path class="cls-1" d="M184.73,54.43h1.83c2.5,0,2.62,1.71,2.62,3.32v4.61c0,1.77-.25,3.52-2.75,3.52h-1.7Zm.84,10.7h.78c1.55,0,2-.81,2-2.53v-5c0-1.51-.27-2.42-1.94-2.42h-.81Z"/><path class="cls-1" d="M192.19,61.67v1.51c0,1,.18,2.09,1.17,2.09s1.11-.7,1.11-1.67v-.1h.84v.08c0,1.07-.26,2.44-2,2.44-1.52,0-2-1.06-2-2.81V59.72c0-1.4.52-2.61,2-2.61s2,1.23,2,2.62v1.94Zm2.31-.73V59.72c0-.81-.09-1.86-1.13-1.86s-1.18.88-1.18,1.88v1.2Z"/><path class="cls-1" d="M197.54,60.2c0-1.36,0-2.26,0-3h.81c0,.27,0,.65,0,1.32a1.87,1.87,0,0,1,1.76-1.43v1c-1.13,0-1.75.88-1.75,2.3v5.39h-.84Z"/><path class="cls-1" d="M205.37,62.76v.63c0,1.24.46,1.88,1.35,1.88s1.34-.55,1.34-2.16a3.08,3.08,0,0,0-1.51-3c-1.22-.95-1.82-1.5-1.82-3.18,0-1.41.42-2.71,2-2.7,1.43,0,2,.89,2,2.49v.48h-.84V56.8c0-1.06-.22-1.77-1.14-1.77s-1.17.82-1.17,1.82a2.52,2.52,0,0,0,1.34,2.48c1.5,1.16,2,1.79,2,3.68,0,1.6-.39,3-2.18,3s-2.19-1.11-2.19-2.62v-.64Z"/><path class="cls-1" d="M212,53.91v4.16a1.57,1.57,0,0,1,1.56-1c1.27,0,1.64,1,1.64,2.22v6.55h-.84V59.52c0-.77-.08-1.61-1-1.61-1.11,0-1.34.89-1.34,2.34v5.63h-.84v-12Z"/><path class="cls-1" d="M221.57,59.56v3.82c0,1.89-.86,2.64-2.07,2.64s-2-.72-2-2.57V59.56c0-1.52.75-2.45,2.08-2.45S221.57,58.05,221.57,59.56Zm-3.24,0v3.9c0,1.12.39,1.79,1.19,1.79s1.2-.49,1.2-1.79V59.56c0-1-.36-1.68-1.19-1.68S218.33,58.5,218.33,59.57Z"/><path class="cls-1" d="M224.72,65.11v3.7h-.84V59.75c0-1.19,0-1.94,0-2.5h.8c0,.2,0,.51,0,1a1.5,1.5,0,0,1,1.55-1.12c1.16,0,1.73.77,1.73,2.49v3.74c0,1.86-.79,2.68-1.83,2.68A1.36,1.36,0,0,1,224.72,65.11Zm2.41-1.74v-3.8c0-1.23-.47-1.66-1.07-1.66-1.14,0-1.35,1-1.35,2.26v2.7c0,1.09.12,2.35,1.27,2.35C226.77,65.22,227.13,64.57,227.13,63.37Z"/><path class="cls-1" d="M233.6,65.88V58h-1v-.76h1V55.78c0-1,.33-1.94,1.56-1.94a2,2,0,0,1,.52.06v.8a2.12,2.12,0,0,0-.44,0c-.66,0-.8.49-.8,1.2v1.39h1.15V58h-1.15v7.87Z"/><path class="cls-1" d="M241.18,63.68c0,1,0,1.82,0,2.2h-.8c0-.14,0-.6,0-.95A1.39,1.39,0,0,1,238.85,66c-.64,0-1.65-.2-1.65-2.18V57.25H238v6.37c0,1.19.31,1.62,1,1.62s1.27-.38,1.27-2.39v-5.6h.84Zm-3.41-8.08V53.91h.8V55.6Zm2,0V53.91h.81V55.6Z"/><path class="cls-1" d="M243.74,60.2c0-1.36,0-2.26,0-3h.81c0,.27,0,.65,0,1.32a1.87,1.87,0,0,1,1.76-1.43v1c-1.12,0-1.75.88-1.75,2.3v5.39h-.84Z"/><path class="cls-1" d="M252.22,54.43V65.88h-.84V54.43Z"/><path class="cls-1" d="M255.72,53.91v4.16a1.57,1.57,0,0,1,1.56-1c1.27,0,1.65,1,1.65,2.22v6.55h-.85V59.52c0-.77-.07-1.61-1-1.61-1.11,0-1.34.89-1.34,2.34v5.63h-.84v-12Z"/><path class="cls-1" d="M261.48,60.2c0-1.36,0-2.26,0-3h.81c0,.27,0,.65,0,1.32a1.87,1.87,0,0,1,1.76-1.43v1c-1.13,0-1.75.88-1.75,2.3v5.39h-.84Z"/><path class="cls-1" d="M266.44,61.67v1.51c0,1,.19,2.09,1.18,2.09s1.11-.7,1.11-1.67v-.1h.83v.08c0,1.07-.26,2.44-2,2.44-1.52,0-2-1.06-2-2.81V59.72c0-1.4.52-2.61,2-2.61s1.94,1.23,1.94,2.62v1.94Zm2.32-.73V59.72c0-.81-.1-1.86-1.14-1.86s-1.17.88-1.17,1.88v1.2Z"/><path class="cls-1" d="M271.8,59.85c0-1.71,0-2.15,0-2.6h.8a8.64,8.64,0,0,1,0,.92,1.51,1.51,0,0,1,1.57-1.06c.87,0,1.65.47,1.65,2v6.74H275V59.31c0-.87-.29-1.4-1-1.4s-1.34.38-1.34,2.34v5.63h-.84Z"/><path class="cls-1" d="M281.66,54.43h1.75c1.64,0,2.24.94,2.24,2.41v.58c0,1.6-.44,2.1-1.07,2.32.7.2,1.32.82,1.32,2.3v.83c0,2-.61,3-2.53,3h-1.71Zm1.8,5c1.05,0,1.37-.49,1.37-2v-.56c0-1.1-.42-1.71-1.49-1.71h-.85V59.4Zm-1,5.74h.84c1.38,0,1.72-.68,1.72-2.27v-.82c0-1.34-.55-1.91-1.63-1.91h-.93Z"/><path class="cls-1" d="M288.79,61.67v1.51c0,1,.18,2.09,1.17,2.09s1.12-.7,1.12-1.67v-.1h.83v.08c0,1.07-.26,2.44-2,2.44-1.52,0-2-1.06-2-2.81V59.72c0-1.4.52-2.61,2-2.61s1.95,1.23,1.95,2.62v1.94Zm2.31-.73V59.72c0-.81-.09-1.86-1.13-1.86s-1.18.88-1.18,1.88v1.2Z"/><path class="cls-1" d="M298,53.91v9.87c0,.82,0,1.61,0,2.1h-.79c0-.12,0-.6,0-.87a1.45,1.45,0,0,1-1.49,1c-1.39,0-1.8-1.09-1.8-2.73V59.64c0-1.55.63-2.53,1.92-2.53a1.4,1.4,0,0,1,1.35.68V53.91Zm-3.25,5.77v3.58c0,1.31.33,2,1.1,2,1,0,1.31-1,1.31-2.36v-3c0-1-.1-2-1.26-2C295.11,57.91,294.76,58.6,294.76,59.68Z"/><path class="cls-1" d="M304.06,64.58c0,.62,0,1.1,0,1.3h-.8a6,6,0,0,1-.08-.75,1.33,1.33,0,0,1-1.4.89c-1.21,0-1.69-1-1.69-2.39v-.16a2.33,2.33,0,0,1,2.58-2.6h.5V59.31c0-.85-.17-1.43-.95-1.43s-1,.59-1,1.37v.29h-.83v-.29c0-1.17.47-2.14,1.87-2.14s1.79,1,1.79,2.15Zm-.84-3h-.51c-1.12,0-1.75.49-1.75,1.85v.15c0,.89.25,1.64,1,1.64.95,0,1.23-.8,1.23-2.18Z"/><path class="cls-1" d="M306.62,60.2c0-1.36,0-2.26,0-3h.81c0,.27,0,.65,0,1.32a1.87,1.87,0,0,1,1.76-1.43v1c-1.13,0-1.75.88-1.75,2.3v5.39h-.84Z"/><path class="cls-1" d="M311.66,65.88V58h-1v-.76h1V55.78c0-1,.33-1.94,1.56-1.94a1.9,1.9,0,0,1,.52.06v.8a2.12,2.12,0,0,0-.44,0c-.66,0-.8.49-.8,1.2v1.39h1.15V58H312.5v7.87Z"/><path class="cls-1" d="M322,64.58c0,.62,0,1.1,0,1.3h-.8a6,6,0,0,1-.08-.75,1.33,1.33,0,0,1-1.4.89c-1.21,0-1.69-1-1.69-2.39v-.16a2.33,2.33,0,0,1,2.58-2.6h.5V59.31c0-.85-.17-1.43-1-1.43s-1,.59-1,1.37v.29h-.83v-.29c0-1.17.47-2.14,1.87-2.14s1.79,1,1.79,2.15Zm-.84-3h-.51c-1.12,0-1.75.49-1.75,1.85v.15c0,.89.25,1.64,1,1.64.95,0,1.23-.8,1.23-2.18Z"/><path class="cls-1" d="M324.58,59.85c0-1.71,0-2.15,0-2.6h.8a8.64,8.64,0,0,1,0,.92A1.53,1.53,0,0,1,327,57.11c.87,0,1.66.47,1.66,2v6.74h-.85V59.31c0-.87-.28-1.4-1-1.4s-1.34.38-1.34,2.34v5.63h-.84Z"/><path class="cls-1" d="M339.93,60.74c0-2.2,0-4.35.08-5.52h0c-.3,1.88-1.34,7.2-2,10.66h-.87c-.53-2.93-1.61-8.65-1.9-10.66h0c0,1.32.1,3.92.1,5.88v4.78h-.81V54.43h1.23c.76,3.71,1.71,8.55,1.86,9.91h0c.18-1.29,1.23-6.43,2-9.91h1.24V65.88h-.84Z"/><path class="cls-1" d="M346.93,64.58c0,.62,0,1.1,0,1.3h-.8a4.57,4.57,0,0,1-.08-.75,1.33,1.33,0,0,1-1.4.89c-1.21,0-1.69-1-1.69-2.39v-.16a2.33,2.33,0,0,1,2.58-2.6h.5V59.31c0-.85-.17-1.43-.95-1.43s-1,.59-1,1.37v.29h-.83v-.29c0-1.17.46-2.14,1.87-2.14s1.78,1,1.78,2.15Zm-.83-3h-.52c-1.11,0-1.74.49-1.74,1.85v.15c0,.89.25,1.64,1,1.64.94,0,1.23-.8,1.23-2.18Z"/><path class="cls-1" d="M353.33,65.92c0,1.63-.2,3-2.15,3a1.82,1.82,0,0,1-1.95-2.07v-.05h.86v.06c0,.57.21,1.32,1.14,1.32s1.26-.75,1.26-2.1V64.87a1.38,1.38,0,0,1-1.49,1c-1.13,0-1.76-.78-1.76-2.6V59.64c0-1.76.82-2.53,1.94-2.53a1.32,1.32,0,0,1,1.4.89c0-.23,0-.54.06-.75h.73c0,.44,0,1.26,0,2.36Zm-3.23-6.25v3.5c0,1.27.35,1.89,1.07,1.89,1.16,0,1.34-1.27,1.34-2.51V60c0-1.18-.13-2.08-1.21-2.08C350.42,57.91,350.1,58.59,350.1,59.67Z"/><path class="cls-1" d="M355.89,57.25h.84v8.63h-.84Zm0-3.34h.84V55.6h-.84Z"/><path class="cls-1" d="M359.86,61.67v1.51c0,1,.18,2.09,1.18,2.09s1.11-.7,1.11-1.67v-.1H363v.08c0,1.07-.26,2.44-2,2.44-1.52,0-2-1.06-2-2.81V59.72c0-1.4.52-2.61,2-2.61S363,58.34,363,59.73v1.94Zm2.31-.73V59.72c0-.81-.09-1.86-1.13-1.86s-1.18.88-1.18,1.88v1.2Z"/><path class="cls-1" d="M25.66,11.69a9,9,0,0,0-1.54.34,5.37,5.37,0,0,0-2.58,1.3,3.57,3.57,0,0,0-.91,2.12l.72-.18a17.28,17.28,0,0,1,3.74-.39,14.86,14.86,0,0,1,3.71.54,8.19,8.19,0,0,1,1.67.81,1.51,1.51,0,0,1,.7.67,1.31,1.31,0,0,1-.05,1,1.88,1.88,0,0,1-.71.74l-1.66,1.16s-.9.55-2,1.39a8.61,8.61,0,0,0-2.18,2A5.29,5.29,0,0,0,23.92,27a6.46,6.46,0,0,0,.72,1.88,36.72,36.72,0,0,0,4.29,6.06c.25.32-.36-.46,1.92,2.52,2.85,3.73,4.27,5.6,5.43,7.07s2.87,3.59,5,6.07c-2.41-4.32-4.33-7.39-5.69-9.45-.52-.8-1.9-2.87-3.6-5.63-1.55-2.5-1.2-2.07-2-3.23-1.18-1.81-1.61-2.24-2-3.33A5,5,0,0,1,28,25.65a5.49,5.49,0,0,1,1.93-2.34c1.21-1,1.7-1.06,3.83-2.35s3-1.83,3.6-2.84a5.62,5.62,0,0,0,.73-3,6.32,6.32,0,0,0-.62-2.53,7.16,7.16,0,0,0-1.75-2.31,4.06,4.06,0,0,1,.69-.65,5.29,5.29,0,0,1,2.92-.88,20.14,20.14,0,0,1,5,.27,8.35,8.35,0,0,0-1-.62,12.16,12.16,0,0,0-3.9-1.23,18.83,18.83,0,0,0-5.28,0,15.5,15.5,0,0,0-5.59,1.52A6.63,6.63,0,0,0,26.75,10,5.93,5.93,0,0,0,25.66,11.69Z"/><path class="cls-1" d="M42.73,30.38a15.39,15.39,0,0,0,2.07.87,16.32,16.32,0,0,0,4.45.84,11.82,11.82,0,0,0,6.8-1.54,8.7,8.7,0,0,0,3.29-3.45,6.3,6.3,0,0,0,.77-3.91,5.51,5.51,0,0,0-2.5-4,5.73,5.73,0,0,0-5.67,0,4.19,4.19,0,0,0-1.75,1.72A3.34,3.34,0,0,0,50,23.73a3.83,3.83,0,0,0,2.68,2.07,3.7,3.7,0,0,0,2-.17,3.14,3.14,0,0,1-.46-.91,1.58,1.58,0,0,1,0-1.31,1.33,1.33,0,0,1,1-.61,1.7,1.7,0,0,1,1.39.68,2.43,2.43,0,0,1,.4,2A5.28,5.28,0,0,1,55,28.66a10.75,10.75,0,0,1-5.4,2.21A15.47,15.47,0,0,1,42.73,30.38Z"/><path class="cls-1" d="M83.78.84A1.67,1.67,0,0,0,82.33,0H1.67A1.67,1.67,0,0,0,.22.84a1.64,1.64,0,0,0,0,1.67L40.56,71.78a1.63,1.63,0,0,0,1.44.83,1.66,1.66,0,0,0,1.44-.83L83.77,2.51A1.66,1.66,0,0,0,83.78.84ZM60.25,36.27A6.47,6.47,0,0,0,58.57,35a7.79,7.79,0,0,0-2.18-.69c-2-.42-4.06-.87-6.09-1.27-1.39-.27-3-.58-4.72-1.06A37.66,37.66,0,0,1,40,30c1.12.72,2.74,1.72,4.76,2.85,1.29.72,2.27,1.23,4.16,2.2,2.43,1.26,5,2.55,5.19,2.63,1.55.78,2.43,1.2,3.79,2l.3.16-.61,1.05-.24-.17c-1.1-.81-1.29-.81-7.91-4.44-2-1.12-3.62-2-5.57-3.1a51.49,51.49,0,0,1-6.19-3.91,36.05,36.05,0,0,1-3.32-2.87c.34.49.81,1.15,1.42,1.89a27.46,27.46,0,0,0,3.65,3.63c1.67,1.4,2.46,1.82,4.13,3,1,.7,1.19.91,6.64,5.65,3.26,2.83,4.18,3.62,5,4.39l-.81,1.38-.7-.72c-1.48-1.53-2.83-2.75-5.51-5.21-2.24-2.06-3.37-3.08-4.75-4.25-3.74-3.16-5.61-4.74-5.94-5a15.56,15.56,0,0,1-2.61-2.53,9.44,9.44,0,0,1-1.35-2.36,3.2,3.2,0,0,1-.29-1.44,2.83,2.83,0,0,1,.32-1.13,2.42,2.42,0,0,0-.75,1,2.59,2.59,0,0,0,0,1.58,7.43,7.43,0,0,0,1.12,2.51,22.18,22.18,0,0,0,2.76,3.26c.2.21.36.38.48.49.47.54,1.16,1.31,2,2.23l.69.74c1.5,1.61,2.74,3.23,5.22,6.47,1.9,2.48,2.94,3.83,4.32,5.88.85,1.26,1.57,2.4,2.16,3.35l-.69,1.2c-1.24-2.33-2.35-4-3.07-5.16a82.62,82.62,0,0,0-7.18-9.48c-1.2-1.35-2.37-2.73-3.58-4.08,0,0-1.26-1.4-3.28-4.13a8.09,8.09,0,0,1-1.32-2.53,3.49,3.49,0,0,1,.76-3.82,6.69,6.69,0,0,1,2.3-1.77,9.29,9.29,0,0,0-2.67,1.2,6.7,6.7,0,0,0-1.71,1.53,4.31,4.31,0,0,0-1,1.91,4,4,0,0,0,.43,2.5,63.53,63.53,0,0,0,4.27,7.55c1.34,2,.56,1,4,6.29,2.12,3.31,2.44,3.73,3.48,5.47a59.21,59.21,0,0,1,3.14,5.71,50.05,50.05,0,0,1,2,4.78L42,67.62,4.58,3.34H79.42Z"/></g></g></svg>