<svg xmlns="http://www.w3.org/2000/svg" viewBox="0 0 502.7 502.7"><defs><style>.cls-1{fill:#fff;}</style></defs><g id="Ebene_2" data-name="Ebene 2"><g id="Ebene_1-2" data-name="Ebene 1"><path class="cls-1" d="M429.08,73.62A251.35,251.35,0,1,0,73.62,429.08a254.38,254.38,0,0,0,34.72,29.05,250.72,250.72,0,0,0,286,0,254.3,254.3,0,0,0,34.72-29,251.34,251.34,0,0,0,0-355.46ZM251.35,466.7a213.92,213.92,0,0,1-105.83-27.85c1.92-37.62,13.36-72.44,32.67-99,20-27.5,45.95-42.64,73.16-42.64s53.19,15.14,73.16,42.64c19.31,26.6,30.75,61.42,32.67,99A213.92,213.92,0,0,1,251.35,466.7Zm0-207.28a71.56,71.56,0,1,1,71.56-71.55A71.64,71.64,0,0,1,251.35,259.42ZM392,414.33c-5.15-36.11-18-69.43-37.5-96.26-12.68-17.46-27.43-31.24-43.57-41a107.3,107.3,0,1,0-119.06,0c-16.14,9.73-30.89,23.52-43.57,41-19.48,26.83-32.35,60.15-37.5,96.26A214.91,214.91,0,0,1,36,251.35C36,132.61,132.61,36,251.35,36S466.7,132.61,466.7,251.35A214.91,214.91,0,0,1,392,414.33Z"/></g></g></svg>