<svg xmlns="http://www.w3.org/2000/svg" viewBox="0 0 181.91 72.61"><defs><style>.cls-1{fill:#fff;}.cls-2{opacity:0.5;}</style></defs><g id="Ebene_2" data-name="Ebene 2"><g id="Ebene_3" data-name="Ebene 3"><path class="cls-1" d="M16.4,37.94q4.79-4.23,8.21-7.37L30,25.63q2-1.8,3.45-3.05c1-.83,1.63-1.25,1.91-1.25q.8,0,1.53,1.65a7.34,7.34,0,0,1,.72,2.69c0,.43-.73,1.47-2.2,3.1s-2.56,2.93-3.29,3.9a5,5,0,0,0-1.09,3,2,2,0,0,0,.62,1.51,2.14,2.14,0,0,0,1.49.57,4.34,4.34,0,0,0,2.41-1q1.41-1,4.42-3.71v2.46c-2,1.9-3.83,3.53-5.47,4.91a29.73,29.73,0,0,1-4.29,3.08,6.56,6.56,0,0,1-3,1,2.31,2.31,0,0,1-1.8-.81,2.91,2.91,0,0,1-.73-2,7.3,7.3,0,0,1,.42-2.39,20.35,20.35,0,0,1,1.28-2.88c.57-1.11,1.34-2.44,2.29-4s1.81-3,2.6-4.28c-2.36,1.92-4.45,3.76-6.28,5.54S21.64,37,20.49,38.34l-2.74,3.13c-1.29,1.44-2.5,2.15-3.61,2.15s-1.8-.85-1.8-2.56a10.44,10.44,0,0,1,1.35-3.73c.9-1.79,2.19-4.07,3.85-6.85a1.41,1.41,0,0,0,.21-.86.62.62,0,0,0-.69-.7c-.51,0-1.25.48-2.2,1.44s-2.82,3-5.57,6a36.9,36.9,0,0,0-2.58,3.34,34.18,34.18,0,0,1-2.06,2.76,1.76,1.76,0,0,1-1.25.69c-.83,0-1.61-.74-2.32-2.22A11.66,11.66,0,0,1,0,35.79a9,9,0,0,1,.71-3.71,31.84,31.84,0,0,1,2.2-3.88,34.62,34.62,0,0,1,3.8-4.81A4.43,4.43,0,0,1,9.81,22a3.42,3.42,0,0,1,1.7.39,1.22,1.22,0,0,1,.69,1.1,5.14,5.14,0,0,1-1.26,2.39,26.87,26.87,0,0,1-3.21,3.43,14,14,0,0,0-2,2.48,4.89,4.89,0,0,0-.93,2.13c0,.63.24.94.73.94s1.38-.81,3-2.43S11.87,29,13.78,27.1a59.43,59.43,0,0,1,5.3-4.75,7.32,7.32,0,0,1,4.15-1.88,2.13,2.13,0,0,1,1.71.78,2.82,2.82,0,0,1,.68,1.92,7.67,7.67,0,0,1-1,2.76,51.24,51.24,0,0,1-3,4.92Q19.56,33.77,16.4,37.94Z"/><path class="cls-1" d="M43.86,27a41.83,41.83,0,0,1,10.22-7.1c3.31-1.55,5.86-2.33,7.67-2.33a2,2,0,0,1,1.35.61,4.59,4.59,0,0,1,1,1.4,3.24,3.24,0,0,1,.37,1.18,1,1,0,0,1-.49.92,9.48,9.48,0,0,1-1.7.71c.17.37.37.85.63,1.42s.45,1.05.59,1.41a2.65,2.65,0,0,1,.21.95c0,.56-.56,1.59-1.69,3.1s-1.9,2.63-2.35,3.35A4.85,4.85,0,0,0,59,35.23c0,1.71.79,2.57,2.36,2.57s4.15-1.51,7.59-4.54v2.11q-8.78,9.75-12.55,9.74a2.1,2.1,0,0,1-1.92-.88,4.88,4.88,0,0,1-.57-2.62,24.64,24.64,0,0,1,2-7.94q-5.06,5.63-7.52,8c-1.64,1.59-3,2.38-4.06,2.38-.51,0-1.14-.44-1.9-1.32a12.5,12.5,0,0,1-2-3.41A11.1,11.1,0,0,1,39.45,35a10,10,0,0,1,.32-2.73A6.49,6.49,0,0,1,41,30,31,31,0,0,1,43.86,27Zm16.6-3.81q-9,4.13-12.84,7c-2.56,1.92-3.83,3.9-3.83,5.93a3.75,3.75,0,0,0,.38,1.82,1.16,1.16,0,0,0,1,.71,3.86,3.86,0,0,0,1.35-.48,27.34,27.34,0,0,0,6.66-5.6Q56.24,29.1,60.46,23.17Z"/><path class="cls-1" d="M96.24,35.51,84.73,45a66.35,66.35,0,0,1-8.84,12.53c-2.66,2.76-4.63,4.14-5.93,4.14-.69,0-1-.43-1-1.28,0-1.67.85-3.79,2.53-6.38a25.14,25.14,0,0,1,2.31-3q1.3-1.45,2.46-2.52c.77-.7,1.8-1.58,3.07-2.63s2.14-1.77,2.6-2.17q3.47-7.06,5-10.81c-2.17,2.31-4.07,4.2-5.68,5.68A27.93,27.93,0,0,1,76.74,42a7.42,7.42,0,0,1-3.66,1.19c-1.18,0-2.26-.94-3.26-2.82a12.37,12.37,0,0,1-1.49-5.81A7.67,7.67,0,0,1,69,31.63a14.29,14.29,0,0,1,2-3.26,25.55,25.55,0,0,1,3.48-3.55,37.14,37.14,0,0,1,5-3.56q5.37-3.36,8.35-3.36c1.48,0,2.22.54,2.22,1.63q0,2.25-4.82,4.4a31.11,31.11,0,0,0-5.84,3.4,22.15,22.15,0,0,0-4.68,4.49,7.39,7.39,0,0,0-1.78,4.28,2.25,2.25,0,0,0,.45,1.49,1.44,1.44,0,0,0,1.17.56A5,5,0,0,0,77.28,37a55.37,55.37,0,0,0,4.61-3.92A43.63,43.63,0,0,0,85.58,29a57.64,57.64,0,0,1,3.81-4.37,4.17,4.17,0,0,1,2.73-1.51,1.51,1.51,0,0,1,1.12.43,1.72,1.72,0,0,1,.44,1.27,13.54,13.54,0,0,1-1.27,4.63q-1.26,3-4.56,9.93l8.39-6.1Z"/><path class="cls-1" d="M112.64,33.19v2.53a35.07,35.07,0,0,1-6.27,6.53q-2.93,2.2-5,2.21a4.49,4.49,0,0,1-4.23-3A15.15,15.15,0,0,1,95.79,35a11.42,11.42,0,0,1,.28-2.59,9,9,0,0,1,.66-2c.25-.54.73-1.37,1.42-2.5q4.92-7.67,9-7.66c1.41,0,2.12.54,2.12,1.63a8.23,8.23,0,0,1-1.37,3.46,14.89,14.89,0,0,1-2.45,3.37,54.65,54.65,0,0,0-3.93,4.05,4.07,4.07,0,0,0-.92,2.6,2.63,2.63,0,0,0,.94,2.08,3.48,3.48,0,0,0,2.42.84,7,7,0,0,0,3.59-1.2A43.71,43.71,0,0,0,112.64,33.19Zm-2.36-15.5a2.51,2.51,0,0,1-1.64-.66,2.08,2.08,0,0,1-.78-1.66,5.75,5.75,0,0,1,1.45-3.4,4,4,0,0,1,3-1.87,2.29,2.29,0,0,1,2.42,2.5,5.5,5.5,0,0,1-1.42,3.29A3.94,3.94,0,0,1,110.28,17.69Z"/><path class="cls-1" d="M133.27,33.26v2.32q-3.71,3.64-6.05,5.65a25.77,25.77,0,0,1-4.37,3.12,8.22,8.22,0,0,1-4,1.11,5,5,0,0,1-3.5-1.51,10.14,10.14,0,0,1-2.49-4,14.67,14.67,0,0,1-.91-5.18,8.44,8.44,0,0,1,1-4.2,24.39,24.39,0,0,1,4-4.75,39,39,0,0,1,6.57-5.35q3-1.89,4.76-1.89a2.92,2.92,0,0,1,2.12.86,3,3,0,0,1,.86,2.19,7.26,7.26,0,0,1-1.14,3.15,17.67,17.67,0,0,1-2.57,3.56q-1.41,1.5-2.25,1.5c-.6,0-.9-.32-.9-1,0-.18,0-.35,0-.52s0-.32,0-.48-.1-.43-.3-.47a1,1,0,0,0-.71.26q-3.47,2.43-4.75,3.42a10.05,10.05,0,0,0-2,2,3.47,3.47,0,0,0-.75,2.11,4.42,4.42,0,0,0,1.32,3.33,4.69,4.69,0,0,0,3.43,1.28A11.38,11.38,0,0,0,126,38.16,56.18,56.18,0,0,0,133.27,33.26Z"/><path class="cls-1" d="M137.26,27a41.68,41.68,0,0,1,10.23-7.1c3.3-1.55,5.86-2.33,7.66-2.33a2,2,0,0,1,1.35.61,4.46,4.46,0,0,1,1,1.4,3.37,3.37,0,0,1,.36,1.18,1,1,0,0,1-.48.92,9.82,9.82,0,0,1-1.7.71l.62,1.42c.26.58.45,1.05.59,1.41a2.65,2.65,0,0,1,.21.95c0,.56-.56,1.59-1.68,3.1s-1.91,2.63-2.36,3.35a4.85,4.85,0,0,0-.67,2.63c0,1.71.78,2.57,2.35,2.57s4.15-1.51,7.59-4.54v2.11q-8.76,9.75-12.55,9.74a2.1,2.1,0,0,1-1.92-.88,4.88,4.88,0,0,1-.57-2.62,24.91,24.91,0,0,1,2-7.94q-5.06,5.63-7.52,8t-4,2.38c-.51,0-1.15-.44-1.91-1.32a12.76,12.76,0,0,1-2-3.41,11.09,11.09,0,0,1-.88-4.35,10.06,10.06,0,0,1,.31-2.73A6.66,6.66,0,0,1,134.38,30,31,31,0,0,1,137.26,27Zm16.61-3.81q-9,4.13-12.85,7t-3.83,5.93a3.87,3.87,0,0,0,.38,1.82,1.17,1.17,0,0,0,1,.71,3.73,3.73,0,0,0,1.35-.48,27.34,27.34,0,0,0,6.66-5.6Q149.64,29.1,153.87,23.17Z"/><path class="cls-1" d="M178.65,32.81v2.56Q171.4,45,166.87,45A4.29,4.29,0,0,1,163,42.29a15.33,15.33,0,0,1-1.4-7.06,26.6,26.6,0,0,1,1.66-8.4A60.66,60.66,0,0,1,167.72,17a61.9,61.9,0,0,1,5.79-8.74A21.71,21.71,0,0,1,179.07,3a3.6,3.6,0,0,1,1.63-.62.94.94,0,0,1,1,.64,7,7,0,0,1,.24,2.2q0,4.81-3.91,11.84a72.15,72.15,0,0,1-10.92,14.34,15,15,0,0,0-.35,2.77,6.25,6.25,0,0,0,1,3.6,3,3,0,0,0,2.65,1.39,3.36,3.36,0,0,0,1.88-.68,18.84,18.84,0,0,0,2.11-1.68Q175.43,35.78,178.65,32.81Zm-10.36-6.24a34.94,34.94,0,0,0,3.48-4,50.8,50.8,0,0,0,3.17-4.82,39.65,39.65,0,0,0,2.35-4.61,9.18,9.18,0,0,0,.84-3.09c0-.53-.18-.8-.55-.8a2.06,2.06,0,0,0-.8.38q-2.11,1.74-4.75,6.78A40.64,40.64,0,0,0,168.29,26.57Z"/><g class="cls-2"><path class="cls-1" d="M70.28,11.69a9.22,9.22,0,0,0-1.54.34,5.46,5.46,0,0,0-2.58,1.3,3.57,3.57,0,0,0-.91,2.12l.73-.18a17.23,17.23,0,0,1,3.74-.39,14.75,14.75,0,0,1,3.7.54,8.19,8.19,0,0,1,1.67.81,1.51,1.51,0,0,1,.7.67,1.27,1.27,0,0,1-.05,1,1.86,1.86,0,0,1-.7.74l-1.67,1.16s-.9.55-2,1.39a8.88,8.88,0,0,0-2.19,2A5.35,5.35,0,0,0,68.54,27a6.77,6.77,0,0,0,.72,1.88,38,38,0,0,0,4.29,6.06l1.92,2.52c2.85,3.73,4.28,5.6,5.44,7.07s2.87,3.59,5,6.07c-2.41-4.32-4.33-7.39-5.68-9.45-.53-.8-1.9-2.87-3.61-5.63-1.54-2.5-1.2-2.07-2-3.23-1.18-1.81-1.61-2.24-2-3.33a5,5,0,0,1-.12-3.29,5.44,5.44,0,0,1,1.94-2.34c1.2-1,1.69-1.06,3.82-2.35s3-1.83,3.6-2.84a5.66,5.66,0,0,0,.74-3A6.61,6.61,0,0,0,82,12.61a7.16,7.16,0,0,0-1.75-2.31A4.06,4.06,0,0,1,81,9.65a5.32,5.32,0,0,1,2.92-.88,20.26,20.26,0,0,1,5,.27,9.56,9.56,0,0,0-1-.62A12.16,12.16,0,0,0,84,7.19a18.76,18.76,0,0,0-5.27,0,15.67,15.67,0,0,0-5.6,1.52A6.63,6.63,0,0,0,71.37,10,6.17,6.17,0,0,0,70.28,11.69Z"/><path class="cls-1" d="M87.36,30.38a14.65,14.65,0,0,0,2.06.87,16.3,16.3,0,0,0,4.46.84,11.78,11.78,0,0,0,6.79-1.54A8.57,8.57,0,0,0,104,27.1a6.3,6.3,0,0,0,.77-3.91,5.48,5.48,0,0,0-2.5-4,5.73,5.73,0,0,0-5.67,0,4.12,4.12,0,0,0-1.74,1.72,3.33,3.33,0,0,0-.17,2.83,3.87,3.87,0,0,0,2.68,2.07,3.76,3.76,0,0,0,2-.17,2.89,2.89,0,0,1-.47-.91,1.58,1.58,0,0,1,0-1.31,1.31,1.31,0,0,1,1-.61,1.74,1.74,0,0,1,1.4.68,2.47,2.47,0,0,1,.4,2,5.33,5.33,0,0,1-2.06,3.16,10.75,10.75,0,0,1-5.4,2.21A15.43,15.43,0,0,1,87.36,30.38Z"/></g><g class="cls-2"><path class="cls-1" d="M128.4.84A1.67,1.67,0,0,0,127,0H46.29a1.68,1.68,0,0,0-1.44,2.51L85.18,71.78a1.67,1.67,0,0,0,2.89,0L128.4,2.51A1.66,1.66,0,0,0,128.4.84ZM104.88,36.27A6.83,6.83,0,0,0,103.2,35a7.74,7.74,0,0,0-2.19-.69c-2-.42-4.05-.87-6.08-1.27-1.4-.27-3-.58-4.73-1.06a37,37,0,0,1-5.57-2c1.11.72,2.73,1.72,4.76,2.85,1.28.72,2.26,1.23,4.15,2.2,2.44,1.26,5,2.55,5.2,2.63,1.54.78,2.42,1.2,3.79,2l.3.16-.62,1.05-.23-.17c-1.11-.81-1.3-.81-7.92-4.44-2-1.12-3.61-2-5.56-3.1a51.9,51.9,0,0,1-6.2-3.91A34.39,34.39,0,0,1,79,26.35c.33.49.8,1.15,1.41,1.89a28.09,28.09,0,0,0,3.65,3.63c1.68,1.4,2.47,1.82,4.14,3,1,.7,1.18.91,6.63,5.65,3.27,2.83,4.18,3.62,5,4.39L99,46.33l-.7-.72c-1.49-1.53-2.83-2.75-5.51-5.21-2.25-2.06-3.37-3.08-4.76-4.25-3.74-3.16-5.61-4.74-5.93-5a15.08,15.08,0,0,1-2.62-2.53,9.8,9.8,0,0,1-1.35-2.36,3.06,3.06,0,0,1-.28-1.44,3,3,0,0,1,.31-1.13,2.51,2.51,0,0,0-.75,1,2.67,2.67,0,0,0,0,1.58,7.31,7.31,0,0,0,1.13,2.51,21.58,21.58,0,0,0,2.76,3.26c.19.21.36.38.47.49.48.54,1.17,1.31,2,2.23l.68.74C86,37.14,87.2,38.76,89.69,42c1.89,2.48,2.93,3.83,4.31,5.88.85,1.26,1.58,2.4,2.17,3.35l-.7,1.2c-1.24-2.33-2.35-4-3.07-5.16a83.05,83.05,0,0,0-7.17-9.48c-1.2-1.35-2.38-2.73-3.59-4.08,0,0-1.26-1.4-3.28-4.13A8.31,8.31,0,0,1,77,27.05,4,4,0,0,1,76.85,25a4,4,0,0,1,1-1.73,6.69,6.69,0,0,1,2.3-1.77,9.21,9.21,0,0,0-2.66,1.2,6.71,6.71,0,0,0-1.72,1.53,4.42,4.42,0,0,0-1,1.91,4.11,4.11,0,0,0,.43,2.5,65.17,65.17,0,0,0,4.27,7.55c1.34,2,.57,1,4,6.29,2.12,3.31,2.44,3.73,3.48,5.47A61.57,61.57,0,0,1,90,53.62a47.14,47.14,0,0,1,2,4.78l-5.37,9.22L49.2,3.34H124Z"/></g></g></g></svg>