<svg xmlns="http://www.w3.org/2000/svg" viewBox="0 0 374.43 106.11"><defs><style>.cls-1{fill:#fff;}</style></defs><g id="Ebene_2" data-name="Ebene 2"><g id="Ebene_1-2" data-name="Ebene 1"><path class="cls-1" d="M20.74,87.29q0,4.41-4.41,4.41H4.41Q0,91.7,0,87.29V78.65H5.12v8.56H15.63V79.63L2,68.5A5,5,0,0,1,.08,64.43V58.11q0-4.43,4.41-4.42H16.25q4.41,0,4.41,4.42v7.57h-5v-7.5H5.12v6.64L18.83,76a5,5,0,0,1,1.91,4.14Z"/><path class="cls-1" d="M37.93,45.37H32.66V38.81h5.27ZM37.85,91.7H32.74v-38h5.11Z"/><path class="cls-1" d="M88.33,91.7h-5.2V58.34l-11.33.31V91.7H66.65V58.34l-11.33.31V91.7h-5.2v-38h5.2v1.06c2-.26,4.06-.54,6.09-.82a49.21,49.21,0,0,1,6.13-.47,4.21,4.21,0,0,1,3.52,1.44q3.28-.42,6.52-.9A55.85,55.85,0,0,1,84,53.46c2.86,0,4.3,1.42,4.3,4.25Z"/><path class="cls-1" d="M122,83.54a8,8,0,0,1-2.31,5.84A7.82,7.82,0,0,1,114,91.7H105.4v14.41h-5.2V53.69h5.2v1.06l6.17-.79a52,52,0,0,1,6.13-.5q4.33,0,4.34,4.25Zm-5.2-.79V58.34l-11.44.31V87.13h7.19Q116.84,87.13,116.84,82.75Z"/><path class="cls-1" d="M139.23,91.7h-5.12V30.57h5.12Z"/><path class="cls-1" d="M172.75,87.29q0,4.41-4.38,4.41h-12.5q-4.37,0-4.37-4.41V58.11q0-4.43,4.37-4.42h12.5q4.38,0,4.38,4.42V71.78L171,73.61H156.54V87.36h11.17v-7h5Zm-5-17.82V58H156.54V69.47Z"/><path class="cls-1" d="M231.15,83.32q0,8.39-8.38,8.38H194.18q-8.15,0-8.15-8.38V8.44Q186,0,194.18,0h28.59q8.37,0,8.38,8.44V29.88H217.5V11.78H199.74V79.92H217.5V60.64h13.65Z"/><path class="cls-1" d="M284.32,91.7H270.84v-48l-12.6.24V91.7H244.83V0h13.41V34.69c3.13-.47,6.25-1,9.38-1.47a63.86,63.86,0,0,1,9.37-.93q7.33,0,7.33,7.2Z"/><path class="cls-1" d="M335.67,91.7H322.84v-2l-9.14,1.4a67.13,67.13,0,0,1-9.08.88q-7.33,0-7.33-7.2V63.4q0-7.32,7.56-7.33H323V42.48H310.13v8.44H298V39.84q0-7.32,7.56-7.32h22.67q7.44,0,7.44,7.32ZM323,81V65.16H310.13V81.5Z"/><path class="cls-1" d="M374.43,91.7H359.55q-7.46,0-7.45-7.32V44h-6.32V32.52h6.32V16.46h13.36V32.52h8.62V44h-8.62V80.27h9Z"/></g></g></svg>