<svg xmlns="http://www.w3.org/2000/svg" viewBox="0 0 266.29 72.61"><defs><style>.cls-1{fill:#fff;}</style></defs><g id="Ebene_2" data-name="Ebene 2"><g id="Ebene_3" data-name="Ebene 3"><path class="cls-1" d="M100.77,44.94q4.78-4.23,8.22-7.37l5.39-4.94q2-1.8,3.45-3.05a5.08,5.08,0,0,1,1.91-1.25c.53,0,1,.53,1.52,1.65a7.2,7.2,0,0,1,.73,2.69c0,.43-.73,1.47-2.2,3.1s-2.57,2.93-3.29,3.9a5,5,0,0,0-1.1,3,2,2,0,0,0,.63,1.51,2.12,2.12,0,0,0,1.49.57,4.37,4.37,0,0,0,2.41-1c.93-.69,2.41-1.93,4.42-3.71v2.46c-2,1.9-3.84,3.53-5.48,4.91a29.72,29.72,0,0,1-4.28,3.08,6.6,6.6,0,0,1-3,1,2.34,2.34,0,0,1-1.81-.81,3,3,0,0,1-.72-2,7.28,7.28,0,0,1,.41-2.39,23,23,0,0,1,1.28-2.88q.87-1.66,2.29-4l2.6-4.28c-2.36,1.92-4.45,3.76-6.27,5.54S106,44,104.87,45.34l-2.74,3.13c-1.3,1.44-2.5,2.15-3.61,2.15s-1.8-.85-1.8-2.56a10.44,10.44,0,0,1,1.35-3.73q1.35-2.69,3.85-6.85a1.41,1.41,0,0,0,.21-.86.62.62,0,0,0-.7-.7c-.51,0-1.24.48-2.2,1.44s-2.81,3-5.56,6a35.06,35.06,0,0,0-2.59,3.34A31.87,31.87,0,0,1,89,49.48a1.72,1.72,0,0,1-1.25.69c-.83,0-1.6-.74-2.32-2.22a11.66,11.66,0,0,1-1.07-5.16,8.8,8.8,0,0,1,.71-3.71,30.54,30.54,0,0,1,2.2-3.88,34.72,34.72,0,0,1,3.79-4.81A4.47,4.47,0,0,1,94.19,29a3.45,3.45,0,0,1,1.7.39,1.22,1.22,0,0,1,.69,1.1,5.09,5.09,0,0,1-1.27,2.39,26,26,0,0,1-3.2,3.43,13.14,13.14,0,0,0-2,2.48,4.89,4.89,0,0,0-.93,2.13c0,.63.24.94.72.94s1.39-.81,3-2.43S96.25,36,98.16,34.1a56.77,56.77,0,0,1,5.3-4.75,7.32,7.32,0,0,1,4.14-1.88,2.14,2.14,0,0,1,1.72.78,2.82,2.82,0,0,1,.68,1.92,7.67,7.67,0,0,1-1,2.76,53.79,53.79,0,0,1-3,4.92Q103.93,40.77,100.77,44.94Z"/><path class="cls-1" d="M128.23,34a41.87,41.87,0,0,1,10.23-7.1c3.3-1.55,5.86-2.33,7.66-2.33a1.91,1.91,0,0,1,1.35.61,4.46,4.46,0,0,1,1,1.4,3.37,3.37,0,0,1,.36,1.18,1,1,0,0,1-.48.92,9.48,9.48,0,0,1-1.7.71c.16.37.37.85.63,1.42s.44,1.05.58,1.41a2.65,2.65,0,0,1,.21.95c0,.56-.56,1.59-1.68,3.1s-1.91,2.63-2.36,3.35a4.85,4.85,0,0,0-.67,2.63c0,1.71.78,2.57,2.36,2.57s4.14-1.51,7.59-4.54v2.11q-8.78,9.75-12.55,9.74a2.13,2.13,0,0,1-1.93-.88,4.88,4.88,0,0,1-.57-2.62,24.71,24.71,0,0,1,2-7.94q-5.07,5.63-7.52,8T128.65,51c-.51,0-1.15-.44-1.91-1.32a12.76,12.76,0,0,1-2-3.41,11.09,11.09,0,0,1-.88-4.35,10.06,10.06,0,0,1,.31-2.73A6.53,6.53,0,0,1,125.36,37,32,32,0,0,1,128.23,34Zm16.61-3.81q-9,4.13-12.85,7t-3.83,5.93a3.87,3.87,0,0,0,.38,1.82,1.17,1.17,0,0,0,1,.71,3.82,3.82,0,0,0,1.36-.48,27.49,27.49,0,0,0,6.65-5.6Q140.6,36.1,144.84,30.17Z"/><path class="cls-1" d="M180.62,42.51,169.11,52a67.27,67.27,0,0,1-8.84,12.53q-4,4.14-5.93,4.14c-.69,0-1-.43-1-1.28,0-1.67.84-3.79,2.53-6.38a26.13,26.13,0,0,1,2.3-3,35.18,35.18,0,0,1,2.47-2.52c.77-.7,1.79-1.58,3.06-2.63s2.14-1.77,2.6-2.17q3.48-7.06,5-10.81c-2.18,2.31-4.07,4.2-5.69,5.68A27.9,27.9,0,0,1,161.12,49a7.48,7.48,0,0,1-3.66,1.19q-1.77,0-3.26-2.82a12.37,12.37,0,0,1-1.49-5.81,7.48,7.48,0,0,1,.64-2.91,14.58,14.58,0,0,1,2-3.26,26.13,26.13,0,0,1,3.48-3.55,37.8,37.8,0,0,1,5-3.56q5.37-3.36,8.36-3.36c1.48,0,2.22.54,2.22,1.63q0,2.25-4.82,4.4a30.79,30.79,0,0,0-5.84,3.4A22.15,22.15,0,0,0,159,38.82a7.42,7.42,0,0,0-1.79,4.28,2.3,2.3,0,0,0,.45,1.49,1.45,1.45,0,0,0,1.18.56A5,5,0,0,0,161.65,44a53.76,53.76,0,0,0,4.61-3.92A42.09,42.09,0,0,0,170,36a53.45,53.45,0,0,1,3.81-4.37,4.15,4.15,0,0,1,2.72-1.51,1.53,1.53,0,0,1,1.13.43,1.71,1.71,0,0,1,.43,1.27,13.47,13.47,0,0,1-1.26,4.63q-1.28,3-4.56,9.93l8.39-6.1Z"/><path class="cls-1" d="M197,40.19v2.53a35.4,35.4,0,0,1-6.28,6.53q-2.91,2.2-5,2.21a4.5,4.5,0,0,1-4.23-3A15.29,15.29,0,0,1,180.17,42a11.42,11.42,0,0,1,.28-2.59,9.61,9.61,0,0,1,.65-2c.26-.54.73-1.37,1.43-2.5q4.92-7.67,9-7.66c1.41,0,2.11.54,2.11,1.63a8.09,8.09,0,0,1-1.37,3.46,14.91,14.91,0,0,1-2.44,3.37,54.65,54.65,0,0,0-3.93,4.05,4,4,0,0,0-.92,2.6,2.66,2.66,0,0,0,.93,2.08,3.52,3.52,0,0,0,2.43.84,7,7,0,0,0,3.59-1.2A44.58,44.58,0,0,0,197,40.19Zm-2.36-15.5A2.52,2.52,0,0,1,193,24a2.08,2.08,0,0,1-.78-1.66,5.77,5.77,0,0,1,1.46-3.4,4,4,0,0,1,3-1.87,2.29,2.29,0,0,1,2.42,2.5,5.5,5.5,0,0,1-1.42,3.29A4,4,0,0,1,194.66,24.69Z"/><path class="cls-1" d="M217.65,40.26v2.32c-2.48,2.43-4.49,4.31-6.05,5.65a26.17,26.17,0,0,1-4.37,3.12,8.25,8.25,0,0,1-4,1.11,5,5,0,0,1-3.5-1.51,10,10,0,0,1-2.5-4,14.89,14.89,0,0,1-.9-5.18,8.44,8.44,0,0,1,1-4.2,23.9,23.9,0,0,1,4-4.75A39.76,39.76,0,0,1,208,27.52q3-1.89,4.77-1.89a2.9,2.9,0,0,1,2.11.86,3,3,0,0,1,.87,2.19,7.26,7.26,0,0,1-1.14,3.15A18.07,18.07,0,0,1,212,35.39q-1.42,1.5-2.25,1.5c-.6,0-.9-.32-.9-1,0-.18,0-.35.05-.52s0-.32,0-.48-.09-.43-.29-.47a1,1,0,0,0-.71.26c-2.31,1.62-3.9,2.76-4.75,3.42a10.12,10.12,0,0,0-2,2,3.52,3.52,0,0,0-.74,2.11,4.45,4.45,0,0,0,1.31,3.33,4.71,4.71,0,0,0,3.44,1.28,11.45,11.45,0,0,0,5.25-1.68A57.6,57.6,0,0,0,217.65,40.26Z"/><path class="cls-1" d="M221.64,34a41.83,41.83,0,0,1,10.22-7.1q5-2.32,7.66-2.33a2,2,0,0,1,1.36.61,4.59,4.59,0,0,1,1,1.4,3.24,3.24,0,0,1,.37,1.18,1,1,0,0,1-.49.92,9.48,9.48,0,0,1-1.7.71c.17.37.37.85.63,1.42s.45,1.05.59,1.41a2.65,2.65,0,0,1,.21.95c0,.56-.57,1.59-1.69,3.1s-1.9,2.63-2.35,3.35a4.85,4.85,0,0,0-.68,2.63c0,1.71.79,2.57,2.36,2.57s4.15-1.51,7.59-4.54v2.11q-8.77,9.75-12.55,9.74a2.1,2.1,0,0,1-1.92-.88,4.78,4.78,0,0,1-.58-2.62,24.71,24.71,0,0,1,2-7.94q-5.06,5.63-7.52,8c-1.64,1.59-3,2.38-4.06,2.38-.51,0-1.14-.44-1.91-1.32a12.75,12.75,0,0,1-2-3.41,11.1,11.1,0,0,1-.89-4.35,10.47,10.47,0,0,1,.31-2.73A6.7,6.7,0,0,1,218.76,37,31,31,0,0,1,221.64,34Zm16.6-3.81q-9,4.13-12.84,7c-2.56,1.92-3.83,3.9-3.83,5.93a3.75,3.75,0,0,0,.38,1.82,1.16,1.16,0,0,0,1,.71,3.86,3.86,0,0,0,1.35-.48,27.34,27.34,0,0,0,6.66-5.6Q234,36.1,238.24,30.17Z"/><path class="cls-1" d="M263,39.81v2.56Q255.79,52,251.24,52a4.27,4.27,0,0,1-3.86-2.69A15.19,15.19,0,0,1,246,42.23a26.65,26.65,0,0,1,1.67-8.4A60.58,60.58,0,0,1,252.09,24a61.9,61.9,0,0,1,5.79-8.74A21.89,21.89,0,0,1,263.45,10a3.56,3.56,0,0,1,1.63-.62,1,1,0,0,1,1,.64,7,7,0,0,1,.24,2.2q0,4.81-3.92,11.84a71.39,71.39,0,0,1-10.92,14.34,16,16,0,0,0-.35,2.77,6.18,6.18,0,0,0,1,3.6,3,3,0,0,0,2.65,1.39,3.34,3.34,0,0,0,1.87-.68,18.89,18.89,0,0,0,2.12-1.68Q259.81,42.79,263,39.81Zm-10.37-6.24a34,34,0,0,0,3.49-4,50.8,50.8,0,0,0,3.17-4.82,41,41,0,0,0,2.34-4.61,9,9,0,0,0,.85-3.09c0-.53-.18-.8-.55-.8a2.06,2.06,0,0,0-.8.38q-2.12,1.74-4.75,6.78A40.29,40.29,0,0,0,252.66,33.57Z"/><path class="cls-1" d="M25.66,11.69a9,9,0,0,0-1.54.34,5.37,5.37,0,0,0-2.58,1.3,3.57,3.57,0,0,0-.91,2.12l.72-.18a17.28,17.28,0,0,1,3.74-.39,14.86,14.86,0,0,1,3.71.54,8.19,8.19,0,0,1,1.67.81,1.51,1.51,0,0,1,.7.67,1.31,1.31,0,0,1-.05,1,1.88,1.88,0,0,1-.71.74l-1.66,1.16s-.9.55-2,1.39a8.61,8.61,0,0,0-2.18,2A5.29,5.29,0,0,0,23.92,27a6.46,6.46,0,0,0,.72,1.88,36.72,36.72,0,0,0,4.29,6.06c.25.32-.36-.46,1.92,2.52,2.85,3.73,4.27,5.6,5.43,7.07s2.87,3.59,5,6.07c-2.41-4.32-4.33-7.39-5.69-9.45-.52-.8-1.9-2.87-3.6-5.63-1.55-2.5-1.2-2.07-2-3.23-1.18-1.81-1.61-2.24-2-3.33A5,5,0,0,1,28,25.65a5.49,5.49,0,0,1,1.93-2.34c1.21-1,1.7-1.06,3.83-2.35s3-1.83,3.6-2.84a5.62,5.62,0,0,0,.73-3,6.32,6.32,0,0,0-.62-2.53,7.16,7.16,0,0,0-1.75-2.31,4.06,4.06,0,0,1,.69-.65,5.29,5.29,0,0,1,2.92-.88,20.14,20.14,0,0,1,5,.27,8.35,8.35,0,0,0-1-.62,12.16,12.16,0,0,0-3.9-1.23,18.83,18.83,0,0,0-5.28,0,15.5,15.5,0,0,0-5.59,1.52A6.63,6.63,0,0,0,26.75,10,5.93,5.93,0,0,0,25.66,11.69Z"/><path class="cls-1" d="M42.73,30.38a15.39,15.39,0,0,0,2.07.87,16.32,16.32,0,0,0,4.45.84,11.82,11.82,0,0,0,6.8-1.54,8.7,8.7,0,0,0,3.29-3.45,6.3,6.3,0,0,0,.77-3.91,5.51,5.51,0,0,0-2.5-4,5.73,5.73,0,0,0-5.67,0,4.19,4.19,0,0,0-1.75,1.72A3.34,3.34,0,0,0,50,23.73a3.83,3.83,0,0,0,2.68,2.07,3.7,3.7,0,0,0,2-.17,3.14,3.14,0,0,1-.46-.91,1.58,1.58,0,0,1,0-1.31,1.33,1.33,0,0,1,1-.61,1.7,1.7,0,0,1,1.39.68,2.43,2.43,0,0,1,.4,2A5.28,5.28,0,0,1,55,28.66a10.75,10.75,0,0,1-5.4,2.21A15.47,15.47,0,0,1,42.73,30.38Z"/><path class="cls-1" d="M83.78.84A1.67,1.67,0,0,0,82.33,0H1.67A1.67,1.67,0,0,0,.22.84a1.64,1.64,0,0,0,0,1.67L40.56,71.78a1.63,1.63,0,0,0,1.44.83,1.66,1.66,0,0,0,1.44-.83L83.77,2.51A1.66,1.66,0,0,0,83.78.84ZM60.25,36.27A6.47,6.47,0,0,0,58.57,35a7.79,7.79,0,0,0-2.18-.69c-2-.42-4.06-.87-6.09-1.27-1.39-.27-3-.58-4.72-1.06A37.66,37.66,0,0,1,40,30c1.12.72,2.74,1.72,4.76,2.85,1.29.72,2.27,1.23,4.16,2.2,2.43,1.26,5,2.55,5.19,2.63,1.55.78,2.43,1.2,3.79,2l.3.16-.61,1.05-.24-.17c-1.1-.81-1.29-.81-7.91-4.44-2-1.12-3.62-2-5.57-3.1a51.49,51.49,0,0,1-6.19-3.91,36.05,36.05,0,0,1-3.32-2.87c.34.49.81,1.15,1.42,1.89a27.46,27.46,0,0,0,3.65,3.63c1.67,1.4,2.46,1.82,4.13,3,1,.7,1.19.91,6.64,5.65,3.26,2.83,4.18,3.62,5,4.39l-.81,1.38-.7-.72c-1.48-1.53-2.83-2.75-5.51-5.21-2.24-2.06-3.37-3.08-4.75-4.25-3.74-3.16-5.61-4.74-5.94-5a15.56,15.56,0,0,1-2.61-2.53,9.44,9.44,0,0,1-1.35-2.36,3.2,3.2,0,0,1-.29-1.44,2.83,2.83,0,0,1,.32-1.13,2.42,2.42,0,0,0-.75,1,2.59,2.59,0,0,0,0,1.58,7.43,7.43,0,0,0,1.12,2.51,22.18,22.18,0,0,0,2.76,3.26c.2.21.36.38.48.49.47.54,1.16,1.31,2,2.23l.69.74c1.5,1.61,2.74,3.23,5.22,6.47,1.9,2.48,2.94,3.83,4.32,5.88.85,1.26,1.57,2.4,2.16,3.35l-.69,1.2c-1.24-2.33-2.35-4-3.07-5.16a82.62,82.62,0,0,0-7.18-9.48c-1.2-1.35-2.37-2.73-3.58-4.08,0,0-1.26-1.4-3.28-4.13a8.09,8.09,0,0,1-1.32-2.53,3.49,3.49,0,0,1,.76-3.82,6.69,6.69,0,0,1,2.3-1.77,9.29,9.29,0,0,0-2.67,1.2,6.7,6.7,0,0,0-1.71,1.53,4.31,4.31,0,0,0-1,1.91,4,4,0,0,0,.43,2.5,63.53,63.53,0,0,0,4.27,7.55c1.34,2,.56,1,4,6.29,2.12,3.31,2.44,3.73,3.48,5.47a59.21,59.21,0,0,1,3.14,5.71,50.05,50.05,0,0,1,2,4.78L42,67.62,4.58,3.34H79.42Z"/></g></g></svg>